#!OML:ASF F:\VICON\USERDATA\INSTALL\rory3\rory3.ASF
:FULLY-SPECIFIED
:DEGREES
402
root 0.406985 16.3196 -3.97045 -156.135 -1.20191 180.567
lowerback -14.3071 4.10965 1.21664
upperback -14.2518 2.45589 -1.0185
thorax -7.14089 -0.180852 -1.41068
lowerneck -2.69297 6.451 0.303336
upperneck 49.0537 -4.14501 5.34992
head 19.8625 -4.62777 0.685007
rclavicle 1.64619e-015 -3.42904e-015
rhumerus -31.6024 5.79854 -15.846
rradius 109.209
rwrist 14.1611
rhand -31.2721 49.4615
rfingers 7.12502
rthumb -4.54592 19.5303
lclavicle 1.64619e-015 -3.42904e-015
lhumerus -32.4936 -5.12229 12.7501
lradius 105.45
lwrist -32.2117
lhand -32.9985 6.52847
lfingers 7.12502
lthumb -6.21281 36.4174
rfemur -35.9536 11.2934 27.834
rtibia 39.8146
rfoot -42.6389 -31.723
rtoes 19.9002
lfemur -88.145 26.8018 -50.5976
ltibia 81.6707
lfoot 7.04561 38.3953
ltoes 38.0092
403
root 0.396655 16.32 -3.95198 -156.048 -1.34073 180.54
lowerback -14.4228 4.15963 1.52978
upperback -14.5015 2.39485 -1.12413
thorax -7.3466 -0.290492 -1.69526
lowerneck -2.91206 6.21883 0.185839
upperneck 48.3492 -3.93024 5.34476
head 19.3847 -4.45265 0.774723
rclavicle 3.91606e-014 8.19987e-016
rhumerus -35.1086 5.80296 -17.7896
rradius 107.412
rwrist 14.5543
rhand -30.4857 48.4815
rfingers 7.12502
rthumb -3.78647 18.5354
lclavicle 3.91606e-014 8.19987e-016
lhumerus -35.8727 -4.95622 14.1152
lradius 103.377
lwrist -32.1093
lhand -30.341 1.11615
lfingers 7.12502
lthumb -3.64678 31.0647
rfemur -35.9835 10.3347 27.9976
rtibia 39.7034
rfoot -42.1818 -31.1878
rtoes 18.6134
lfemur -88.3178 26.7036 -50.5384
ltibia 82.2788
lfoot 10.5477 40.5072
ltoes 36.3975
404
root 0.368035 16.3198 -3.92978 -156.068 -1.71251 180.895
lowerback -14.4893 4.16307 2.51206
upperback -14.5535 2.2891 -1.04888
thorax -7.331 -0.439078 -2.16747
lowerneck -3.54173 6.00682 -0.115522
upperneck 47.6047 -3.52359 5.30019
head 18.991 -4.19199 0.913195
rclavicle -2.31087e-014 -2.78299e-015
rhumerus -37.8621 5.14507 -19.5546
rradius 105.245
rwrist 14.2183
rhand -28.8699 47.8322
rfingers 7.12502
rthumb -2.22606 17.8641
lclavicle -2.31087e-014 -2.78299e-015
lhumerus -39.1169 -4.07056 15.3053
lradius 100.891
lwrist -32.069
lhand -30.8369 -0.200482
lfingers 7.12502
lthumb -4.1256 29.7393
rfemur -35.8389 8.28668 28.8025
rtibia 39.5751
rfoot -41.0806 -29.9065
rtoes 16.0426
lfemur -88.2302 26.5529 -49.7766
ltibia 82.9501
lfoot 10.8141 42.0657
ltoes 37.6947
405
root 0.364943 16.3194 -3.91067 -155.905 -1.51876 181.027
lowerback -14.6951 4.19587 2.75506
upperback -14.7363 2.21522 -0.995661
thorax -7.42652 -0.539059 -2.24279
lowerneck -3.87307 5.82223 -0.250294
upperneck 46.646 -3.06514 5.25132
head 18.389 -3.87887 1.02918
rclavicle 2.29845e-015 -5.31749e-015
rhumerus -40.4913 4.40616 -21.2784
rradius 102.763
rwrist 13.6504
rhand -27.9994 47.7449
rfingers 7.12502
rthumb -1.38529 17.7697
lclavicle 2.29845e-015 -5.31749e-015
lhumerus -42.3183 -3.24313 16.1765
lradius 98.3591
lwrist -31.9624
lhand -31.4798 -1.15028
lfingers 7.12502
lthumb -4.74645 28.7766
rfemur -35.9603 7.98439 28.9168
rtibia 39.4345
rfoot -40.5376 -29.6311
rtoes 13.5956
lfemur -88.4533 26.8042 -49.4522
ltibia 83.493
lfoot 10.5819 43.1115
ltoes 39.1032
406
root 0.366338 16.3189 -3.88989 -155.735 -1.34086 180.881
lowerback -14.6755 4.21328 2.72637
upperback -15.2078 2.06211 -1.09906
thorax -7.99107 -0.712583 -2.33853
lowerneck -3.59483 5.64745 -0.0912104
upperneck 45.6649 -2.76066 5.06952
head 17.6569 -3.65183 0.990604
rclavicle 7.34261e-015 1.28216e-014
rhumerus -43.3012 3.84859 -22.9234
rradius 100.005
rwrist 12.8754
rhand -27.8311 48.2846
rfingers 7.12502
rthumb -1.22276 18.3083
lclavicle 7.34261e-015 1.28216e-014
lhumerus -45.3249 -2.72743 16.7761
lradius 95.6137
lwrist -31.8849
lhand -32.3794 -1.32029
lfingers 7.12502
lthumb -5.61509 28.5853
rfemur -36.1738 7.93811 28.7021
rtibia 39.3675
rfoot -40.4957 -29.6146
rtoes 11.3194
lfemur -88.5376 26.9322 -49.4672
ltibia 83.7515
lfoot 18.0377 41.8589
ltoes 33.8896
407
root 0.363149 16.3167 -3.86177 -155.766 -1.63438 181.249
lowerback -14.5141 4.15385 3.43893
upperback -15.4168 1.86246 -0.992576
thorax -8.31325 -0.914913 -2.63293
lowerneck -3.81425 5.39887 -0.0872269
upperneck 44.5888 -2.37164 4.79268
head 17.0199 -3.36749 0.959725
rclavicle -1.6114e-014 -7.8023e-015
rhumerus -45.721 2.80763 -24.1777
rradius 97.1044
rwrist 11.8398
rhand -27.6271 49.1474
rfingers 7.12502
rthumb -1.02577 19.1701
lclavicle -1.6114e-014 -7.8023e-015
lhumerus -48.0688 -1.70377 17.2801
lradius 92.7921
lwrist -31.8817
lhand -32.9611 -0.858269
lfingers 7.12502
lthumb -6.17661 29.0317
rfemur -36.1189 7.62525 29.2396
rtibia 39.2397
rfoot -40.9321 -29.2317
rtoes 9.14346
lfemur -88.5902 26.8878 -48.5585
ltibia 84.312
lfoot 21.6686 40.8758
ltoes 31.8326
408
root 0.382275 16.3138 -3.8407 -155.723 -1.21956 180.877
lowerback -14.3137 4.08785 2.81436
upperback -15.5899 1.7766 -0.994363
thorax -8.65337 -0.92986 -2.29039
lowerneck -4.27449 5.122 -0.177245
upperneck 43.3112 -1.91014 4.60895
head 16.3567 -3.00418 1.01012
rclavicle 5.96354e-016 -5.1684e-015
rhumerus -48.1984 1.88166 -25.1134
rradius 94.3586
rwrist 10.549
rhand -27.6363 50.1944
rfingers 7.12502
rthumb -1.03462 20.2171
lclavicle 5.96354e-016 -5.1684e-015
lhumerus -50.5021 -0.633564 17.8173
lradius 90.0408
lwrist -31.9536
lhand -32.9109 -0.265539
lfingers 7.12502
lthumb -6.1282 29.6258
rfemur -36.1697 9.14363 28.4473
rtibia 39.1789
rfoot -42.5806 -29.3995
rtoes 8.44163
lfemur -88.1397 27.1043 -48.0509
ltibia 84.7194
lfoot 3.79339 44.7391
ltoes 46.8041
409
root 0.377409 16.3156 -3.81932 -155.857 -1.31996 181.134
lowerback -14.1355 4.13974 3.31403
upperback -15.6292 1.81287 -0.957206
thorax -8.77758 -0.963698 -2.52734
lowerneck -4.53871 4.73434 -0.295122
upperneck 41.7126 -1.58434 4.46872
head 15.5197 -2.67493 1.06851
rclavicle 1.81639e-014 -6.4605e-015
rhumerus -50.5658 0.752877 -25.8599
rradius 91.4851
rwrist 9.35154
rhand -28.0164 51.4805
rfingers 7.12502
rthumb -1.40176 21.5054
lclavicle 1.81639e-014 -6.4605e-015
lhumerus -52.3809 0.705526 18.2554
lradius 86.9547
lwrist -31.9261
lhand -32.6278 -0.486897
lfingers 7.12502
lthumb -5.85484 29.4122
rfemur -35.9449 8.69714 28.8443
rtibia 39.0838
rfoot -42.7096 -29.2141
rtoes 4.79751
lfemur -87.7239 27.247 -46.9854
ltibia 85.1075
lfoot -7.06613 45.8231
ltoes 50.525
410
root 0.383494 16.3145 -3.79213 -155.563 -1.27828 181.248
lowerback -14.4436 4.20931 3.42341
upperback -15.6999 1.8322 -0.916785
thorax -8.68871 -0.985814 -2.53537
lowerneck -4.84729 4.19073 -0.45998
upperneck 39.9835 -1.49165 4.26511
head 14.6895 -2.45451 1.07358
rclavicle -8.94531e-016 -4.07509e-015
rhumerus -52.4338 -0.605759 -26.3156
rradius 88.1552
rwrist 8.47738
rhand -28.5358 53.1671
rfingers 7.12502
rthumb -1.90338 23.1959
lclavicle -8.94531e-016 -4.07509e-015
lhumerus -54.1726 2.01773 18.5944
lradius 84.0887
lwrist -31.4143
lhand -32.155 -0.709387
lfingers 7.12502
lthumb -5.39837 29.2019
rfemur -36.2982 8.50799 28.9747
rtibia 39.0695
rfoot -43.0922 -28.7323
rtoes 2.5713
lfemur -88.1878 27.3889 -46.9702
ltibia 85.1551
lfoot -2.43874 48.2309
ltoes 48.4941
411
root 0.406234 16.3114 -3.7618 -155.039 -1.14504 180.851
lowerback -14.6502 4.16853 2.73541
upperback -16.0465 1.67661 -0.944251
thorax -9.02116 -1.07157 -2.17715
lowerneck -4.92145 3.79289 -0.565884
upperneck 38.2853 -1.30252 4.09843
head 13.8705 -2.21092 1.08818
rclavicle 4.94477e-015 -2.48481e-015
rhumerus -54.1613 -1.56599 -26.637
rradius 84.6703
rwrist 7.58708
rhand -28.9091 54.9913
rfingers 7.12502
rthumb -2.2639 25.0235
lclavicle 4.94477e-015 -2.48481e-015
lhumerus -56.1462 2.58589 18.9337
lradius 81.4117
lwrist -30.325
lhand -31.7085 -0.80869
lfingers 7.12502
lthumb -4.96732 29.1131
rfemur -36.9976 9.91483 28.1757
rtibia 39.0803
rfoot -44.6917 -29.1028
rtoes 2.72756
lfemur -88.9186 27.3061 -47.8268
ltibia 84.8335
lfoot 16.7062 47.818
ltoes 41.1049
412
root 0.394456 16.3051 -3.75042 -155.258 -1.31922 181.108
lowerback -14.3466 4.23412 3.34245
upperback -16.1901 1.69708 -0.923928
thorax -9.33616 -1.14537 -2.48995
lowerneck -4.84308 3.46139 -0.754057
upperneck 36.4187 -1.07462 4.10442
head 12.9885 -1.94146 1.18737
rclavicle -1.08586e-014 -2.08724e-015
rhumerus -55.7994 -2.46083 -26.9956
rradius 81.2102
rwrist 6.89333
rhand -29.4917 56.3611
rfingers 7.12502
rthumb -2.82661 26.4
lclavicle -1.08586e-014 -2.08724e-015
lhumerus -57.8577 3.19986 19.1397
lradius 78.5171
lwrist -29.2675
lhand -31.4993 -0.350325
lfingers 7.12502
lthumb -4.76528 29.5761
rfemur -36.7765 9.24911 28.6523
rtibia 39.1064
rfoot -44.7327 -29.3261
rtoes -0.975304
lfemur -88.1651 27.4219 -46.898
ltibia 84.8191
lfoot -1.65404 50.5616
ltoes 48.5021
